HIERARCHY
ROOT Hips
{
	OFFSET -3.958830 18.904000 13.208200
	CHANNELS 6 Xposition Yposition Zposition Zrotation Yrotation Xrotation 
	JOINT LHipJoint
	{
		OFFSET 0.000000 0.000000 0.000000
		CHANNELS 3 Zrotation Yrotation Xrotation
		JOINT LeftUpLeg
		{
			OFFSET 1.800000 -1.400000 0.085000
			CHANNELS 3 Zrotation Yrotation Xrotation
			JOINT LeftLeg
			{
				OFFSET 2.215000 -6.000000 0.000000
				CHANNELS 3 Zrotation Yrotation Xrotation
				JOINT LeftFoot
				{
					OFFSET 2.500000 -6.900000 0.000000
					CHANNELS 3 Zrotation Yrotation Xrotation
					JOINT LeftToeBase
					{
						OFFSET 0.200000 -0.500000 1.950000
						CHANNELS 3 Zrotation Yrotation Xrotation
						End Site
						{
							OFFSET 0.000000 0.000000 0.000000
						}
					}
				}
			}
		}
	}
	JOINT RHipJoint
	{
		OFFSET 0.000000 0.000000 0.000000
		CHANNELS 3 Zrotation Yrotation Xrotation
		JOINT RightUpLeg
		{
			OFFSET -1.800000 -1.400000 0.085000
			CHANNELS 3 Zrotation Yrotation Xrotation
			JOINT RightLeg
			{
				OFFSET -2.215000 -6.000000 0.000000
				CHANNELS 3 Zrotation Yrotation Xrotation
				JOINT RightFoot
				{
					OFFSET -2.500000 -6.900000 0.000000
					CHANNELS 3 Zrotation Yrotation Xrotation
					JOINT RightToeBase
					{
						OFFSET -0.200000 -0.500000 1.950000
						CHANNELS 3 Zrotation Yrotation Xrotation
						End Site
						{
							OFFSET 0.000000 0.000000 0.000000
						}
					}
				}
			}
		}
	}
	JOINT LowerBack
	{
		OFFSET 0.000000 0.000000 0.000000
		CHANNELS 3 Zrotation Yrotation Xrotation
		JOINT Spine
		{
			OFFSET -0.087000 1.940000 -0.288900
			CHANNELS 3 Zrotation Yrotation Xrotation
			JOINT Spine1
			{
				OFFSET 0.000000 1.950000 0.060000
				CHANNELS 3 Zrotation Yrotation Xrotation
				JOINT Neck
				{
					OFFSET 0.000000 0.000000 0.000000
					CHANNELS 3 Zrotation Yrotation Xrotation
					JOINT Neck1
					{
						OFFSET 0.000000 1.600000 0.340000
						CHANNELS 3 Zrotation Yrotation Xrotation
						JOINT Head
						{
							OFFSET 0.000000 1.667000 -0.240000
							CHANNELS 3 Zrotation Yrotation Xrotation
							End Site
							{
								OFFSET 0.000000 0.000000 0.000000
							}
						}
					}
				}
				JOINT LeftShoulder
				{
					OFFSET 0.000000 0.000000 0.000000
					CHANNELS 3 Zrotation Yrotation Xrotation
					JOINT LeftArm
					{
						OFFSET 2.700000 1.550000 -0.730000
						CHANNELS 3 Zrotation Yrotation Xrotation
						JOINT LeftForeArm
						{
							OFFSET 5.450000 0.000000 0.000000
							CHANNELS 3 Zrotation Yrotation Xrotation
							JOINT LeftHand
							{
								OFFSET 3.450000 0.000000 0.000000
								CHANNELS 3 Zrotation Yrotation Xrotation
								JOINT LeftHandIndex1
								{
									OFFSET 0.750000 0.000000 0.000000
									CHANNELS 3 Zrotation Yrotation Xrotation
									End Site
									{
										OFFSET 0.000000 0.000000 0.000000
									}
								}
							}
						}
					}
				}
				JOINT RightShoulder
				{
					OFFSET 0.000000 0.000000 0.000000
					CHANNELS 3 Zrotation Yrotation Xrotation
					JOINT RightArm
					{
						OFFSET -2.700000 1.550000 -0.730000
						CHANNELS 3 Zrotation Yrotation Xrotation
						JOINT RightForeArm
						{
							OFFSET -5.450000 0.000000 0.000000
							CHANNELS 3 Zrotation Yrotation Xrotation
							JOINT RightHand
							{
								OFFSET -3.450000 0.000000 0.000000
								CHANNELS 3 Zrotation Yrotation Xrotation
								JOINT RightHandIndex1
								{
									OFFSET -0.750000 0.000000 0.000000
									CHANNELS 3 Zrotation Yrotation Xrotation
									End Site
									{
										OFFSET 0.000000 0.000000 0.000000
									}
								}
							}
						}
					}
				}
			}
		}
	}
}
MOTION
Frames: 8
Frame Time: 0.016667
-1.399090 16.131490 -1.759140 -9.070030 -1.558056 -13.855054 -15.712380 12.789718 4.100326 30.720034 -2.080829 -30.900169 3.393534 12.383943 53.475692 -0.093176 10.197696 0.609578 0.855330 0.401480 0.905400 17.917512 -9.274935 2.983997 -18.375834 6.703163 -21.076439 19.214175 -20.042393 50.970258 -1.825217 -9.537074 1.053986 0.273500 -0.211180 0.160810 -2.350950 -3.371833 -8.926573 -12.401957 9.083909 36.661519 7.935219 7.894052 8.409651 -3.983074 -5.380492 -18.742559 -19.741129 14.310662 67.629714 5.938160 8.047730 -21.322730 -23.855867 -29.337590 5.176735 -15.166355 -7.876965 -13.660080 20.595065 -48.718186 -11.123014 -3.120324 2.515949 1.231440 -0.315960 0.423800 0.055420 34.408753 35.183216 14.372286 36.957946 12.467784 -11.668162 34.903501 32.883795 5.178560 1.630717 -1.335493 -0.282270 0.374510 -0.132260 -0.517300 
-1.469570 16.190820 -1.748180 -9.671759 -2.178958 -14.576579 -15.579727 12.892180 3.868753 30.924474 -1.307715 -28.911438 4.249677 11.411588 51.385876 -0.124580 9.752490 0.768592 0.886740 0.458760 0.903670 17.995037 -9.619785 2.964968 -16.400525 6.851020 -19.536941 18.402176 -19.132159 50.205053 -1.786888 -9.284362 1.147858 0.295560 -0.209280 0.160660 -2.634591 -2.795827 -8.827925 -11.408178 7.324638 36.113816 3.883044 7.448216 9.472233 -3.200828 -4.588143 -17.800304 -16.994988 12.789000 67.045620 6.279540 7.420550 -21.100700 -22.963577 -29.025633 5.687143 -16.696102 -8.086054 -13.576072 22.882982 -46.197147 -11.776201 -3.141599 2.536654 1.183990 -0.308950 0.422040 0.083740 31.102427 35.096025 13.551420 35.825455 13.549394 -11.590866 43.463843 37.935694 8.553497 1.728956 -1.412994 -0.248650 0.364170 -0.167860 -0.488960 
-1.533290 16.258230 -1.741370 -10.235515 -2.763687 -15.248325 -15.432339 12.984353 3.619830 31.021240 -0.717411 -26.815550 5.066983 10.373407 48.864458 -0.178810 9.262404 0.943233 0.884690 0.473930 0.872520 18.084716 -10.007075 2.941499 -14.565713 6.695089 -17.992644 17.336704 -18.106183 49.154926 -1.713361 -8.995082 1.250257 0.301530 -0.186390 0.175330 -2.952230 -2.158507 -8.707708 -10.295190 5.453576 35.673728 -1.065294 6.896202 10.452827 -1.877347 -3.374659 -16.784713 -12.936460 10.917787 65.643341 6.360040 6.955280 -20.366580 -21.439148 -28.548987 6.005750 -17.455003 -8.222444 -13.548410 24.524614 -44.475805 -12.175393 -3.187531 2.577735 1.132180 -0.278400 0.401400 0.104160 26.116746 34.455739 12.539375 34.842541 15.184001 -11.123812 53.717742 43.037293 13.436625 1.872683 -1.475002 -0.227370 0.341050 -0.177080 -0.463140 
-1.587560 16.333270 -1.741170 -10.915196 -3.319233 -15.763348 -15.272825 12.996666 3.390474 31.235523 -0.113290 -24.907724 5.810007 9.529762 46.483111 -0.227985 8.850943 1.106121 0.862500 0.456220 0.831770 18.197157 -10.386614 2.947068 -12.910725 6.493958 -16.492109 16.726842 -17.220570 47.661505 -1.626689 -8.710653 1.359429 0.298870 -0.142500 0.185600 -3.320117 -1.409262 -8.595847 -8.240849 3.547333 35.444316 -6.787382 6.441159 11.295102 0.040704 -1.879738 -15.763778 -8.329633 8.948351 63.826372 6.161450 6.235750 -19.111680 -20.168100 -27.791885 5.933942 -17.017210 -8.791455 -12.920097 23.730064 -42.083391 -11.151899 -3.256565 2.624103 1.077410 -0.233080 0.360550 0.123230 20.350974 32.911491 11.440891 33.043240 17.089631 -10.163634 64.438073 48.178460 19.909347 2.005114 -1.519074 -0.225280 0.329830 -0.173180 -0.441230 
-1.637980 16.414690 -1.746880 -11.524619 -4.029157 -16.066758 -15.124385 13.020309 3.159415 31.416086 0.595046 -22.981443 6.427868 8.812761 43.707332 -0.252652 8.417357 1.302296 0.833140 0.424860 0.785260 18.306489 -10.721596 2.960755 -11.285267 6.305612 -15.027645 16.138755 -16.249395 45.927320 -1.528748 -8.385659 1.501759 0.278720 -0.079680 0.193150 -3.667253 -0.767139 -8.464184 -5.782531 1.666969 35.206466 -12.212814 5.815679 12.358250 2.196935 -1.139624 -15.126777 -5.897769 7.942586 61.112655 5.654640 4.878530 -17.944420 -18.683965 -26.604774 5.837919 -17.380665 -9.344357 -12.130684 22.997092 -39.405518 -10.153668 -3.317962 2.661190 1.012310 -0.185870 0.311850 0.152180 14.205585 30.922117 10.699788 29.470186 18.204288 -9.061489 77.764626 54.957356 30.309735 2.155328 -1.513944 -0.218110 0.334650 -0.171750 -0.403740 
-1.693610 16.504450 -1.751020 -11.788985 -4.849699 -16.200282 -15.007832 13.045022 2.951349 31.698155 1.392608 -20.749347 6.174914 8.536216 40.210557 -0.258336 7.972442 1.519432 0.784780 0.381300 0.728250 18.390990 -11.001445 2.967868 -10.033921 6.124157 -13.702297 15.526669 -15.165144 43.969903 -1.412664 -8.019262 1.660912 0.247350 -0.002200 0.190760 -3.933933 -0.245091 -8.321197 -3.608987 0.174908 34.641110 -16.955432 5.362043 13.797736 4.431588 -0.719309 -14.860978 -4.333786 7.261868 58.137758 5.052150 3.364480 -16.659460 -17.035908 -25.339153 5.772551 -18.405268 -9.633159 -11.535658 22.166634 -37.613243 -9.382961 -3.366548 2.687250 0.936040 -0.136750 0.259390 0.181720 7.984972 28.949290 10.440821 24.765911 17.988097 -8.537599 93.151505 61.855785 44.605007 2.426220 -1.279907 -0.214430 0.354640 -0.168380 -0.354050 
-1.744890 16.590890 -1.754460 -11.668083 -5.648606 -15.751022 -14.889719 13.085387 2.779748 31.551925 1.915486 -18.734178 5.569153 8.316057 36.493584 -0.248284 7.491935 1.745581 0.717060 0.308790 0.641120 18.466783 -11.246918 2.992238 -9.204449 5.919820 -13.182369 14.786912 -14.100858 42.095441 -1.274728 -7.659560 1.811530 0.194210 0.071070 0.199710 -4.187639 0.166386 -8.215794 -1.532999 -1.328229 33.718599 -21.329449 4.552945 14.492145 6.455950 -0.750409 -15.038552 -4.120790 7.466522 55.577675 4.747850 2.126100 -13.931450 -16.504294 -24.297830 6.020762 -18.745546 -8.986012 -10.682009 20.501749 -35.203161 -8.074905 -3.417148 2.789014 0.848190 -0.084810 0.193710 0.209270 3.407474 27.390154 10.097495 18.663671 15.285224 -9.672379 111.635508 65.642853 65.319131 2.609953 -0.755697 -0.199490 0.330270 -0.155990 -0.301880 
-1.803220 16.672560 -1.757270 -11.065270 -6.363339 -15.525603 -14.823822 13.164913 2.671007 31.358309 2.240119 -16.632639 4.358069 8.333459 33.145690 -0.200804 7.132412 1.941199 0.645520 0.243660 0.538990 18.492643 -11.416514 2.963256 -8.819282 5.530767 -12.411880 13.966210 -13.044014 40.109925 -1.128513 -7.293251 1.968040 0.146130 0.160170 0.196680 -4.295846 0.304084 -8.105559 -0.575263 -2.584239 33.175390 -24.393065 3.872286 15.310998 8.264846 -1.719484 -15.299122 -5.859269 8.071433 51.936982 4.972400 0.538840 -11.318050 -15.436914 -23.021772 6.255542 -20.361363 -8.450646 -10.109942 19.294582 -33.482953 -7.264442 -3.447443 2.884639 0.745860 -0.035110 0.119950 0.242440 -1.114504 26.607425 9.777595 11.976317 10.506906 -12.170596 127.604468 67.235325 88.965251 2.178661 -0.717130 -0.185040 0.321440 -0.142500 -0.234140 
